<svg width="40" height="40" viewBox="0 0 40 40" fill="none" xmlns="http://www.w3.org/2000/svg">
<g clip-path="url(#clip0_208_144)">
<path d="M33.9759 3.76794H5.88791C4.93591 3.76794 4.15991 4.55194 4.15991 5.50928V8.64528C4.15991 9.60261 4.93858 10.3866 5.88791 10.3866H33.8906C34.8426 10.3866 35.6186 9.60261 35.6186 8.64528V5.50928C35.7039 4.55194 34.9279 3.76794 33.9759 3.76794Z" fill="#0BA4DB"/>
<path d="M33.9759 21.2773H5.88791C4.93591 21.2773 4.15991 22.0613 4.15991 23.0187V26.1547C4.15991 27.112 4.93858 27.896 5.88791 27.896H33.8906C34.8426 27.896 35.6186 27.112 35.6186 26.1547V23.0187C35.7039 22.0613 34.9279 21.2773 33.9759 21.2773Z" fill="#0BA4DB"/>
<path d="M21.7039 30.0747H5.88791C4.93591 30.0747 4.15991 30.8587 4.15991 31.816V34.952C4.15991 35.9094 4.93858 36.6934 5.88791 36.6934H21.7039C22.6559 36.6934 23.4319 35.9094 23.4319 34.952V31.816C23.4319 30.8587 22.6532 30.0747 21.7039 30.0747Z" fill="#0BA4DB"/>
<path d="M35.7066 12.5653H5.88791C4.93591 12.5653 4.15991 13.3493 4.15991 14.3066V17.4426C4.15991 18.4 4.93858 19.184 5.88791 19.184H35.7039C36.6559 19.184 37.4319 18.4 37.4319 17.4426V14.3066C37.4319 13.3493 36.6532 12.5653 35.7039 12.5653H35.7066Z" fill="#0BA4DB"/>
</g>
<defs>
<clipPath id="clip0_208_144">
<rect width="40" height="40" fill="white"/>
</clipPath>
</defs>
</svg>
