<svg width="16" height="16" viewBox="0 0 16 16" fill="none" xmlns="http://www.w3.org/2000/svg">
<path d="M13.0905 7.27187H5.09053V4.3625C5.09053 2.75625 6.39365 1.45312 7.9999 1.45312C9.60615 1.45312 10.9093 2.75625 10.9093 4.3625V5.09062H12.3624V4.3625C12.3624 1.95313 10.4093 0 7.9999 0C5.59053 0 3.6374 1.95313 3.6374 4.3625V7.27187H2.90928C2.50928 7.27187 2.18115 7.59688 2.18115 8V15.2719C2.18115 15.675 2.50615 16 2.90928 16H13.0905C13.4905 16 13.8187 15.675 13.8187 15.2719V8C13.8187 7.59688 13.4937 7.27187 13.0905 7.27187Z" fill="white"/>
</svg>
