<svg width="16" height="16" viewBox="0 0 16 16" fill="none" xmlns="http://www.w3.org/2000/svg">
<path d="M2.98438 3.24992H12.9844C13.1012 3.24988 13.2179 3.25729 13.3337 3.2721C13.2945 2.99641 13.1998 2.73152 13.0554 2.49341C12.9109 2.2553 12.7198 2.04891 12.4935 1.88667C12.2671 1.72443 12.0103 1.6097 11.7384 1.54941C11.4665 1.48912 11.1853 1.4845 10.9116 1.53585L2.6875 2.93992H2.67812C2.1619 3.03863 1.70283 3.33071 1.39469 3.75648C1.85894 3.42627 2.41467 3.24918 2.98438 3.24992ZM12.9844 3.99992H2.98438C2.45412 4.00049 1.94575 4.21139 1.5708 4.58634C1.19585 4.96129 0.984954 5.46966 0.984375 5.99992V11.9999C0.984954 12.5302 1.19585 13.0385 1.5708 13.4135C1.94575 13.7884 2.45412 13.9993 2.98438 13.9999H12.9844C13.5146 13.9993 14.023 13.7884 14.3979 13.4135C14.7729 13.0385 14.9838 12.5302 14.9844 11.9999V5.99992C14.9838 5.46966 14.7729 4.96129 14.3979 4.58634C14.023 4.21139 13.5146 4.00049 12.9844 3.99992ZM11.5 9.99992C11.3022 9.99992 11.1089 9.94127 10.9444 9.83139C10.78 9.7215 10.6518 9.56533 10.5761 9.3826C10.5004 9.19987 10.4806 8.99881 10.5192 8.80483C10.5578 8.61084 10.653 8.43266 10.7929 8.29281C10.9327 8.15296 11.1109 8.05772 11.3049 8.01913C11.4989 7.98055 11.7 8.00035 11.8827 8.07604C12.0654 8.15172 12.2216 8.2799 12.3315 8.44435C12.4414 8.60879 12.5 8.80213 12.5 8.99992C12.5 9.26513 12.3946 9.51949 12.2071 9.70702C12.0196 9.89456 11.7652 9.99992 11.5 9.99992Z" fill="#E6E6E6"/>
<path d="M1 8.10938V5C1 4.32281 1.375 3.1875 2.67656 2.94156C3.78125 2.73437 4.875 2.73438 4.875 2.73438C4.875 2.73438 5.59375 3.23438 5 3.23438C4.40625 3.23438 4.42188 4 5 4C5.57812 4 5 4.73438 5 4.73438L2.67188 7.375L1 8.10938Z" fill="#E6E6E6"/>
</svg>
